<svg xmlns="http://www.w3.org/2000/svg" viewBox="0 0 64 64" id="paper"><g data-name="2"><polygon fill="#ccd0db" points="56.59 59.08 56.59 0 12.29 0 12.29 59.6 56.61 59.6 56.59 59.08"></polygon><rect width="43.25" height="59.08" x="7.39" y="4.92" fill="#e6e9ef"></rect><path fill="#bac0ca" d="M24.93 12.6H11.85a.75.75 0 1 1 0-1.49H24.93a.75.75 0 0 1 0 1.49zM24.93 18.61H11.85a.75.75 0 0 1 0-1.5H24.93a.75.75 0 0 1 0 1.5zM46.18 24.51H11.85a.75.75 0 0 1-.75-.74.76.76 0 0 1 .75-.75H46.18a.75.75 0 0 1 .74.75A.74.74 0 0 1 46.18 24.51zM46.18 30.52H11.85a.75.75 0 1 1 0-1.5H46.18a.75.75 0 0 1 0 1.5zM46.18 36.5H11.85a.75.75 0 0 1 0-1.5H46.18a.75.75 0 0 1 0 1.5zM46.18 42.48H11.85a.75.75 0 1 1 0-1.49H46.18a.75.75 0 0 1 0 1.49zM46.18 48.42H11.85a.75.75 0 0 1-.75-.74.76.76 0 0 1 .75-.75H46.18a.75.75 0 0 1 .74.75A.74.74 0 0 1 46.18 48.42zM46.18 54.39H32.74a.75.75 0 1 1 0-1.49H46.18a.75.75 0 0 1 0 1.49z"></path></g></svg>