<svg xmlns="http://www.w3.org/2000/svg" width="655.359" height="655.359" fill-rule="evenodd" clip-rule="evenodd" image-rendering="optimizeQuality" shape-rendering="geometricPrecision" text-rendering="geometricPrecision" viewBox="0 0 6.827 6.827" id="portfolio"><path fill="#f5f5f5" d="M2.351 1.74h-.647v4.073h3.419v-4.8H2.43v.648a.08.08 0 0 1-.08.08zm-.255 1.665H4.73a.08.08 0 0 1 0 .16H2.096a.08.08 0 0 1 0-.16zm0 .583H4.73a.08.08 0 0 1 0 .16H2.096a.08.08 0 0 1 0-.16zm0 .583H4.73a.08.08 0 0 1 0 .16H2.096a.08.08 0 0 1 0-.16zm-.08.664a.08.08 0 0 1 .08-.08H3.44a.08.08 0 0 1 0 .16H2.096a.08.08 0 0 1-.08-.08zm1.61-3.452a.37.37 0 0 1 .633-.263.37.37 0 0 1-.262.634.37.37 0 0 1-.371-.371zm-.157.896a.45.45 0 0 1 .242-.329.34.34 0 0 0 .572 0 .455.455 0 0 1 .242.329H3.469zm1.197.135zm-.062-.062-.048-.049.048.049z"/><path fill="#0a93e2" fill-rule="nonzero" d="M5.123 1.013H2.384l-.68.681v4.12h3.419v-4.8zM2.35.853h2.852a.08.08 0 0 1 .08.08v4.96a.08.08 0 0 1-.08.08h-3.58a.08.08 0 0 1-.08-.08V1.661c0-.02.009-.041.024-.057l.727-.727a.08.08 0 0 1 .057-.024z"/><path fill="#0a93e2" fill-rule="nonzero" d="M1.817 1.58h.454v-.454l-.454.455zm.534.16h-.727a.08.08 0 0 1-.057-.136l.727-.727a.08.08 0 0 1 .137.056v.728a.08.08 0 0 1-.08.08zm1.923.434a.614.614 0 0 1 .417.578v.001c0 .024-.01.045-.025.06l-.002.003h-.001a.085.085 0 0 1-.057.023H3.388a.085.085 0 0 1-.06-.025.084.084 0 0 1-.025-.06v-.002a.613.613 0 0 1 .422-.58l.025.076-.025-.076a.08.08 0 0 1 .102.057.181.181 0 0 0 .341-.006l.076.025-.076-.025a.08.08 0 0 1 .106-.05zm.171.314a.455.455 0 0 0-.162-.138.341.341 0 0 1-.485.092.341.341 0 0 1-.087-.092.455.455 0 0 0-.242.329h1.056a.446.446 0 0 0-.08-.19zm.16.264v.001-.001zm0 .001.004.004-.003-.004zm0-.001-.049-.049.048.049zm0 .001zm-.608-1.341a.37.37 0 0 1 .262.633.37.37 0 0 1-.633-.262.37.37 0 0 1 .37-.371zm.15.222a.21.21 0 0 0-.361.149.21.21 0 0 0 .36.15.21.21 0 0 0 0-.3zm-2.051 1.77a.08.08 0 0 0 0 .16H4.73a.08.08 0 0 0 0-.16H2.096zm0 .584a.08.08 0 0 0 0 .16H4.73a.08.08 0 0 0 0-.16H2.096zm0 .583a.08.08 0 0 0 0 .16H4.73a.08.08 0 0 0 0-.16H2.096zm0 .584a.08.08 0 0 0 0 .16H3.44a.08.08 0 0 0 0-.16H2.096z"/><path fill="#c2e4f8" d="M1.817 1.581h.454v-.455zM3.847 1.633a.21.21 0 0 0 .15.361.21.21 0 0 0 .15-.36.21.21 0 0 0-.3 0zm.436.717a.34.34 0 0 1-.572 0 .45.45 0 0 0-.242.329h1.056a.446.446 0 0 0-.242-.329z"/><path fill="none" d="M0 0h6.827v6.827H0z"/></svg>