<svg xmlns="http://www.w3.org/2000/svg" enable-background="new 0 0 512 512" viewBox="0 0 512 512" id="collaboration"><path fill="#9bc9ff" fill-rule="evenodd" d="M15.042,156.499v-93.94c0-8.729,7.11-15.84,15.84-15.84h129.02v26.382l-1.246-0.389
		c-3.705-1.156-7.575-1.754-11.457-1.754c-21.13,0-38.33,17.201-38.33,38.33c0,21.129,17.2,38.33,38.33,38.33
		c3.882,0,7.752-0.598,11.455-1.758l1.247-0.391v26.87h-48.991c-2.791,0-5.311,1.646-6.439,4.198L78.149,236.07l-26.316-59.533
		c-1.129-2.553-3.653-4.198-6.444-4.198H30.881C22.152,172.339,15.042,165.229,15.042,156.499L15.042,156.499z M352.109,133.557
		c0-2.713-1.569-5.187-4.019-6.351c-2.459-1.168-5.362-0.821-7.475,0.897c-4.364,3.549-9.66,5.438-15.287,5.438
		c-13.367,0-24.247-10.885-24.247-24.252c0-13.369,10.877-24.251,24.247-24.251c5.627,0,10.923,1.889,15.287,5.438
		c2.113,1.718,5.016,2.065,7.475,0.897c2.448-1.163,4.019-3.641,4.019-6.351V46.719h129.01c8.729,0,15.84,7.11,15.84,15.84v93.94
		c0,8.729-7.11,15.84-15.84,15.84h-14.507c-2.791,0-5.316,1.646-6.444,4.198l-26.316,59.533l-26.321-59.533
		c-1.128-2.552-3.648-4.198-6.439-4.198h-48.982V133.557L352.109,133.557z M458.461,326.868c0,8.366-2.3,17.148-7.148,24.039
		c-4.025,5.721-10.063,10.322-17.315,10.322c-7.251,0-13.288-4.602-17.311-10.322c-4.848-6.892-7.147-15.673-7.147-24.039
		c0-16.233,8.085-25.738,24.459-25.738C450.373,301.131,458.461,310.632,458.461,326.868L458.461,326.868z M280.459,326.868
		c0,8.366-2.299,17.148-7.146,24.039c-4.024,5.722-10.061,10.322-17.313,10.322c-7.252,0-13.289-4.6-17.313-10.322
		c-4.847-6.892-7.146-15.674-7.146-24.039c0-16.233,8.085-25.738,24.459-25.738C272.374,301.131,280.459,310.636,280.459,326.868
		L280.459,326.868z M102.462,326.868c0,8.366-2.3,17.148-7.148,24.039c-4.025,5.721-10.063,10.322-17.316,10.322
		c-7.251,0-13.288-4.602-17.311-10.322c-4.848-6.892-7.148-15.673-7.148-24.039c0-16.233,8.085-25.738,24.459-25.738
		C94.374,301.131,102.462,310.632,102.462,326.868z" clip-rule="evenodd"></path><path fill="#57a4ff" fill-rule="evenodd" d="M495.999,462.288c0,1.099-0.929,2.029-2.028,2.029H480.19v-40.969c0-4.42-3.581-7.996-8.001-7.996
		c-4.416,0-7.997,3.576-7.997,7.996v40.969h-60.383v-40.969c0-4.42-3.576-7.996-7.996-7.996s-8.001,3.576-8.001,7.996v40.969H374.03
		c-1.099,0-2.029-0.929-2.029-2.029v-53.561c0-11.988,12.861-17.819,23.65-20.589c12.488-3.208,25.179-4.822,37.988-4.822
		c12.842,0,25.792,1.613,38.771,4.84c8.808,2.18,23.589,7.761,23.589,20.57V462.288L495.999,462.288z M433.998,302.091
		c10.724,0,23.504,4.298,23.504,24.778c0,18.097-10.761,33.402-23.504,33.402c-12.738,0-23.499-15.305-23.499-33.402
		C410.498,306.388,423.279,302.091,433.998,302.091L433.998,302.091z M476.269,372.631c-7.1-1.765-14.177-3.081-21.249-3.973
		c11.091-8.751,18.479-24.212,18.479-41.79c0-16.361-6.388-25.778-11.757-30.807c-6.973-6.52-16.564-9.973-27.745-9.973
		c-11.176,0-20.768,3.453-27.736,9.973c-5.374,5.029-11.761,14.446-11.761,30.807c0,17.54,7.36,32.968,18.409,41.738
		c-7.129,0.882-14.21,2.231-21.24,4.034c-22.669,5.827-35.671,18.98-35.671,36.087v53.561c0,9.941,8.091,18.031,18.031,18.031
		h119.94c9.94,0,18.031-8.091,18.031-18.031v-53.561C512.001,391.417,498.971,378.259,476.269,372.631L476.269,372.631z
		 M318.001,462.288c0,1.099-0.929,2.029-2.034,2.029h-13.781v-40.969c0-4.42-3.576-7.996-7.996-7.996
		c-4.421,0-8.001,3.576-8.001,7.996v40.969h-60.378v-40.969c0-4.42-3.581-7.996-8.001-7.996c-4.421,0-7.997,3.576-7.997,7.996
		v40.969h-13.785c-1.099,0-2.029-0.929-2.029-2.029v-53.561c0-11.988,12.861-17.819,23.65-20.589
		c12.493-3.208,25.179-4.822,37.992-4.822c12.837,0,25.788,1.613,38.771,4.84c8.808,2.18,23.589,7.761,23.589,20.57V462.288
		L318.001,462.288z M256,302.091c10.719,0,23.5,4.298,23.5,24.778c0,18.097-10.757,33.402-23.5,33.402
		c-12.743,0-23.499-15.305-23.499-33.402C232.501,306.388,245.281,302.091,256,302.091L256,302.091z M298.271,372.631
		c-7.1-1.765-14.181-3.081-21.249-3.973c11.087-8.751,18.475-24.212,18.475-41.79c0-16.361-6.388-25.778-11.757-30.807
		c-6.968-6.52-16.559-9.973-27.741-9.973c-11.181,0-20.772,3.453-27.74,9.973c-5.369,5.029-11.757,14.446-11.757,30.807
		c0,17.54,7.36,32.968,18.409,41.738c-7.129,0.882-14.21,2.231-21.24,4.034c-22.674,5.827-35.671,18.98-35.671,36.087v53.561
		c0,9.941,8.091,18.031,18.027,18.031h119.94c9.945,0,18.031-8.091,18.031-18.031v-53.561
		C333.999,391.417,320.978,378.259,298.271,372.631L298.271,372.631z M139.999,462.288c0,1.099-0.929,2.029-2.029,2.029H124.19
		v-40.969c0-4.42-3.581-7.996-8.001-7.996c-4.416,0-7.997,3.576-7.997,7.996v40.969H47.809v-40.969c0-4.42-3.581-7.996-7.997-7.996
		c-4.421,0-8.001,3.576-8.001,7.996v40.969H18.03c-1.099,0-2.029-0.929-2.029-2.029v-53.561c0-11.988,12.856-17.819,23.65-20.589
		c12.488-3.208,25.179-4.822,37.988-4.822c12.842,0,25.792,1.613,38.771,4.84c8.808,2.18,23.589,7.761,23.589,20.57V462.288
		L139.999,462.288z M77.998,302.091c10.723,0,23.504,4.298,23.504,24.778c0,18.097-10.761,33.402-23.504,33.402
		c-12.738,0-23.499-15.305-23.499-33.402C54.499,306.388,67.279,302.091,77.998,302.091L77.998,302.091z M120.269,372.631
		c-7.1-1.765-14.182-3.081-21.249-3.973c11.091-8.751,18.479-24.212,18.479-41.79c0-16.361-6.392-25.778-11.761-30.807
		c-6.968-6.52-16.559-9.973-27.741-9.973c-11.176,0-20.768,3.453-27.736,9.973c-5.369,5.029-11.762,14.446-11.762,30.807
		c0,17.54,7.36,32.968,18.409,41.738c-7.128,0.882-14.21,2.231-21.239,4.034c-22.669,5.827-35.671,18.98-35.671,36.087v53.561
		c0,9.941,8.091,18.031,18.031,18.031h119.94c9.94,0,18.032-8.091,18.032-18.031v-53.561
		C156.002,391.417,142.981,378.259,120.269,372.631L120.269,372.631z M495.999,156.499c0,8.199-6.68,14.88-14.88,14.88h-14.507
		c-3.17,0-6.043,1.868-7.322,4.77l-25.438,57.548l-25.443-57.548c-1.279-2.902-4.147-4.77-7.317-4.77h-48.022v-37.822
		c0-3.081-1.779-5.897-4.567-7.218c-2.793-1.331-6.091-0.929-8.492,1.019c-4.189,3.411-9.27,5.222-14.682,5.222
		c-12.837,0-23.287-10.455-23.287-23.292c0-12.842,10.45-23.292,23.287-23.292c5.411,0,10.492,1.812,14.682,5.222
		c2.401,1.948,5.699,2.349,8.492,1.019c2.788-1.321,4.567-4.142,4.567-7.218V47.679h128.05c8.199,0,14.88,6.68,14.88,14.88V156.499
		L495.999,156.499z M288.76,171.379h48.31v-24.603c-3.779,1.184-7.742,1.802-11.742,1.802c-21.66,0-39.29-17.63-39.29-39.29
		c0-21.659,17.63-39.29,39.29-39.29c4.001,0,7.964,0.618,11.742,1.797V47.679H174.939V85.02c0,3.076-1.779,5.897-4.572,7.218
		c-2.788,1.33-6.086,0.929-8.487-1.019c-4.189-3.411-9.27-5.222-14.682-5.222c-12.837,0-23.287,10.45-23.287,23.292
		c0,12.837,10.45,23.292,23.287,23.292c5.411,0,10.492-1.812,14.682-5.222c2.402-1.949,5.699-2.35,8.487-1.019
		c2.793,1.321,4.572,4.137,4.572,7.218v37.822h48.301c3.17,0,6.039,1.868,7.322,4.77L256,233.697l25.438-57.548
		C282.722,173.248,285.59,171.379,288.76,171.379L288.76,171.379z M110.909,171.379c-3.171,0-6.039,1.868-7.317,4.77l-25.443,57.548
		L52.71,176.149c-1.283-2.902-4.152-4.77-7.322-4.77H30.881c-8.2,0-14.88-6.68-14.88-14.88v-93.94c0-8.2,6.68-14.88,14.88-14.88
		h128.06v24.117c-3.779-1.179-7.742-1.797-11.743-1.797c-21.659,0-39.29,17.63-39.29,39.29c0,21.659,17.63,39.29,39.29,39.29
		c4.001,0,7.964-0.618,11.743-1.802v24.603H110.909L110.909,171.379z M481.119,31.681H30.881c-17.031,0-30.883,13.856-30.883,30.878
		v93.94c0,17.031,13.851,30.878,30.883,30.878h9.299l30.652,69.342c1.278,2.887,4.147,4.76,7.317,4.76
		c3.17,0,6.043-1.873,7.322-4.76l30.652-69.342h101.909l30.647,69.342c1.283,2.887,4.152,4.76,7.322,4.76
		c3.171,0,6.039-1.873,7.322-4.76l30.647-69.342h101.909l30.652,69.342c1.279,2.887,4.152,4.76,7.322,4.76
		c3.17,0,6.039-1.873,7.317-4.76l30.651-69.342h9.299c17.031,0,30.883-13.847,30.883-30.878v-93.94
		C512.001,45.537,498.15,31.681,481.119,31.681z" clip-rule="evenodd"></path></svg>