<svg xmlns="http://www.w3.org/2000/svg" width="64" height="64" enable-background="new 0 0 64 64" viewBox="0 0 64 64" id="phone-login"><path fill="#545C66" d="M50,58.004c0,3.3-2.7,6-6,6H20c-3.3,0-6-2.7-6-6V9.999c0-3.3,2.7-6,6-6h24c3.3,0,6,2.7,6,6V58.004z"></path><path fill="#656D78" d="M50,54.001c0,3.3-2.7,6-6,6H20c-3.3,0-6-2.7-6-6V5.996c0-3.3,2.7-6,6-6h24c3.3,0,6,2.7,6,6V54.001z"></path><path fill="#AAB2BD" d="M32,53.496c1.1,0,2,0.9,2,2c0,1.11-0.9,2-2,2s-2-0.89-2-2C30,54.396,30.9,53.496,32,53.496z"></path><path fill="#5D9CEC" d="M29.03,4.498c-0.553,0-1.005-0.447-1.005-1s0.442-1,0.994-1h0.011c0.552,0,1,0.447,1,1
					S29.582,4.498,29.03,4.498z"></path><path fill="#545C66" d="M35,4.498h-3c-0.553,0-1-0.447-1-1s0.447-1,1-1h3c0.553,0,1,0.447,1,1S35.553,4.498,35,4.498z"></path><g><rect width="32" height="44" x="16" y="6.998" fill="#E6E9ED"></rect><path fill="#FFF" d="M41.5 37.996h-19v-.01c-.83 0-1.5-.67-1.5-1.5 0-.82.67-1.49 1.5-1.49h19c.83 0 1.5.67 1.5 1.5C43 37.316 42.33 37.996 41.5 37.996zM41.5 33.998h-19v-.01c-.83 0-1.5-.67-1.5-1.5 0-.82.67-1.49 1.5-1.49h19c.83 0 1.5.67 1.5 1.5C43 33.318 42.33 33.998 41.5 33.998z"></path><path fill="#AC92EC" d="M32,23.999c1.74,0,3.22,1.1,3.77,2.66c-1.029,0.84-2.34,1.34-3.77,1.34s-2.74-0.5-3.77-1.34
			C28.78,25.109,30.26,23.999,32,23.999z"></path><path fill="#656D78" d="M30,21.999c0,1.1,0.9,2,2,2c-1.74,0-3.22,1.11-3.77,2.66c-1.36-1.09-2.23-2.78-2.23-4.66
			c0-3.32,2.69-6,6-6s6,2.68,6,6c0,1.88-0.87,3.57-2.23,4.66c-0.55-1.561-2.029-2.66-3.77-2.66c1.1,0,2-0.9,2-2c0-1.11-0.9-2-2-2
			S30,20.889,30,21.999z"></path><path fill="#5D9CEC" d="M37,39.496H27c-0.827,0-1.5,0.673-1.5,1.5s0.673,1.5,1.5,1.5h10c0.827,0,1.5-0.673,1.5-1.5
			S37.827,39.496,37,39.496z"></path><path fill="#EAC6BB" d="M34.5,22.499c0,1.374-1.125,2.5-2.5,2.5s-2.5-1.126-2.5-2.5c0-1.388,1.125-2.5,2.5-2.5
			S34.5,21.111,34.5,22.499z"></path></g></svg>